<svg height="96px" width="315px" id="Layer_1" data-name="Layer 1" xmlns="http://www.w3.org/2000/svg" viewBox="0 0 314.61 94.38"><defs><style>.cls-1{fill:none;}.cls-2{fill:#666666;}</style></defs><title>Untitled-2</title><polygon class="cls-1" points="31.46 34.08 31.46 36.7 28.84 36.7 28.84 44.57 26.22 44.57 26.22 55.06 28.84 55.06 28.84 60.3 36.7 60.3 36.7 52.44 39.33 52.44 39.33 44.57 41.95 44.57 41.95 34.08 31.46 34.08"/><polygon class="cls-1" points="83.9 34.08 83.9 36.7 81.27 36.7 81.27 44.57 78.65 44.57 78.65 55.06 81.27 55.06 81.27 60.3 89.14 60.3 89.14 52.44 91.76 52.44 91.76 44.57 94.38 44.57 94.38 34.08 83.9 34.08"/><polygon class="cls-1" points="144.2 36.7 146.82 36.7 146.82 49.81 159.93 49.81 159.93 39.33 162.55 39.33 162.55 34.08 165.17 34.08 165.17 23.6 159.93 23.6 159.93 31.46 157.3 31.46 157.3 39.33 154.68 39.33 154.68 44.57 152.06 44.57 152.06 36.7 149.44 36.7 149.44 28.84 146.82 28.84 146.82 23.6 141.57 23.6 141.57 28.84 144.2 28.84 144.2 36.7"/><polygon class="cls-1" points="154.68 89.14 154.68 73.41 157.3 73.41 157.3 70.79 159.93 70.79 159.93 65.54 162.55 65.54 162.55 52.44 146.82 52.44 146.82 55.06 146.82 57.68 157.3 57.68 157.3 60.3 146.82 60.3 146.82 57.68 138.95 57.68 138.95 55.06 136.33 55.06 136.33 57.68 131.09 57.68 131.09 68.17 133.71 68.17 133.71 73.41 136.33 73.41 136.33 86.52 136.33 89.14 141.57 89.14 141.57 91.76 152.06 91.76 152.06 89.14 154.68 89.14"/><polygon class="cls-1" points="186.14 41.95 186.14 31.46 183.52 31.46 183.52 23.6 180.9 23.6 180.9 18.35 178.28 18.35 178.28 13.11 175.66 13.11 175.66 10.49 173.03 10.49 173.03 7.87 167.79 7.87 167.79 5.24 162.55 5.24 162.55 2.62 144.2 2.62 144.2 5.24 138.95 5.24 138.95 7.87 133.71 7.87 133.71 10.49 131.09 10.49 131.09 13.11 128.47 13.11 128.47 15.73 125.84 15.73 125.84 18.35 123.22 18.35 123.22 23.6 120.6 23.6 120.6 28.84 117.98 28.84 117.98 34.08 115.36 34.08 115.36 49.81 112.73 49.81 112.73 55.06 115.36 55.06 115.36 65.54 117.98 65.54 117.98 70.79 120.6 70.79 120.6 76.03 123.22 76.03 123.22 81.27 128.47 81.27 128.47 83.9 131.09 83.9 131.09 86.52 133.71 86.52 133.71 73.41 131.09 73.41 131.09 68.17 128.47 68.17 128.47 41.95 131.09 41.95 131.09 39.33 136.33 39.33 138.95 39.33 138.95 36.7 141.57 36.7 141.57 28.84 138.95 28.84 138.95 23.6 141.57 23.6 141.57 20.97 146.82 20.97 146.82 23.6 149.44 23.6 149.44 28.84 152.06 28.84 152.06 36.7 154.68 36.7 154.68 31.46 157.3 31.46 157.3 23.6 159.93 23.6 159.93 20.97 165.17 20.97 165.17 23.6 167.79 23.6 167.79 34.08 165.17 34.08 165.17 39.33 162.55 39.33 162.55 49.81 162.55 52.44 165.17 52.44 165.17 65.54 162.55 65.54 162.55 70.79 159.93 70.79 159.93 73.41 157.3 73.41 157.3 89.14 162.55 89.14 162.55 86.52 167.79 86.52 167.79 83.9 170.41 83.9 170.41 81.27 175.66 81.27 175.66 78.65 178.28 78.65 178.28 73.41 180.9 73.41 180.9 68.17 183.52 68.17 183.52 60.3 186.14 60.3 186.14 47.19 188.76 47.19 188.76 41.95 186.14 41.95"/><rect class="cls-1" x="138.95" y="39.33" width="5.24" height="15.73"/><rect class="cls-1" x="131.09" y="41.95" width="5.24" height="13.11"/><polygon class="cls-1" points="301.5 34.08 301.5 36.7 298.88 36.7 298.88 44.57 296.26 44.57 296.26 55.06 298.88 55.06 298.88 60.3 306.74 60.3 306.74 52.44 309.37 52.44 309.37 44.57 311.99 44.57 311.99 34.08 301.5 34.08"/><polygon class="cls-1" points="243.82 34.08 243.82 36.7 241.2 36.7 241.2 44.57 238.58 44.57 238.58 55.06 241.2 55.06 241.2 60.3 249.06 60.3 249.06 52.44 251.69 52.44 251.69 44.57 254.31 44.57 254.31 34.08 243.82 34.08"/><rect class="cls-2" y="31.46" width="2.62" height="10.49"/><rect class="cls-2" x="2.62" y="41.95" width="2.62" height="5.24"/><rect class="cls-2" x="2.62" y="60.3" width="5.24" height="2.62"/><rect class="cls-2" x="5.24" y="47.19" width="2.62" height="2.62"/><rect class="cls-2" x="15.73" y="31.46" width="2.62" height="2.62"/><rect class="cls-2" x="28.84" y="34.08" width="2.62" height="2.62"/><rect class="cls-2" x="26.22" y="36.7" width="2.62" height="7.87"/><rect class="cls-2" x="23.6" y="44.57" width="2.62" height="10.49"/><rect class="cls-2" x="26.22" y="55.06" width="2.62" height="5.24"/><rect class="cls-2" x="28.84" y="60.3" width="7.87" height="2.62"/><rect class="cls-2" x="44.57" y="60.3" width="5.24" height="2.62"/><rect class="cls-2" x="49.81" y="52.43" width="2.62" height="7.87"/><rect class="cls-2" x="52.43" y="44.57" width="2.62" height="7.87"/><rect class="cls-2" x="60.3" y="47.19" width="2.62" height="7.87"/><rect class="cls-2" x="57.68" y="44.57" width="2.62" height="2.62"/><rect class="cls-2" x="60.3" y="41.95" width="2.62" height="2.62"/><rect class="cls-2" x="62.92" y="39.33" width="2.62" height="2.62"/><rect class="cls-2" x="65.54" y="36.7" width="2.62" height="2.62"/><rect class="cls-2" x="68.17" y="31.46" width="2.62" height="5.24"/><rect class="cls-2" x="62.92" y="55.06" width="2.62" height="5.24"/><rect class="cls-2" x="65.54" y="60.3" width="5.24" height="2.62"/><rect class="cls-2" x="55.06" y="31.46" width="2.62" height="13.11"/><rect class="cls-2" x="36.7" y="52.43" width="2.62" height="7.87"/><rect class="cls-2" x="39.33" y="44.57" width="2.62" height="7.87"/><rect class="cls-2" x="41.95" y="34.08" width="2.62" height="10.49"/><rect class="cls-2" x="31.46" y="31.46" width="10.49" height="2.62"/><rect class="cls-2" x="81.27" y="34.08" width="2.62" height="2.62"/><rect class="cls-2" x="78.65" y="36.7" width="2.62" height="7.87"/><rect class="cls-2" x="76.03" y="44.57" width="2.62" height="10.49"/><rect class="cls-2" x="78.65" y="55.06" width="2.62" height="5.24"/><rect class="cls-2" x="81.27" y="60.3" width="7.87" height="2.62"/><rect class="cls-2" x="89.14" y="52.43" width="2.62" height="7.87"/><rect class="cls-2" x="110.11" y="49.81" width="2.62" height="5.24"/><rect class="cls-2" x="112.73" y="34.08" width="2.62" height="15.73"/><rect class="cls-2" x="115.36" y="28.84" width="2.62" height="5.24"/><rect class="cls-2" x="117.98" y="23.6" width="2.62" height="5.24"/><rect class="cls-2" x="120.6" y="18.35" width="2.62" height="5.24"/><rect class="cls-2" x="123.22" y="15.73" width="2.62" height="2.62"/><rect class="cls-2" x="125.84" y="13.11" width="2.62" height="2.62"/><rect class="cls-2" x="128.47" y="10.49" width="2.62" height="2.62"/><rect class="cls-2" x="131.09" y="7.87" width="2.62" height="2.62"/><rect class="cls-2" x="133.71" y="5.24" width="5.24" height="2.62"/><rect class="cls-2" x="138.95" y="2.62" width="5.24" height="2.62"/><rect class="cls-2" x="162.55" y="2.62" width="5.24" height="2.62"/><rect class="cls-2" x="167.79" y="5.24" width="5.24" height="2.62"/><rect class="cls-2" x="173.03" y="7.87" width="2.62" height="2.62"/><rect class="cls-2" x="175.66" y="10.49" width="2.62" height="2.62"/><rect class="cls-2" x="178.28" y="13.11" width="2.62" height="5.24"/><rect class="cls-2" x="180.9" y="18.35" width="2.62" height="5.24"/><rect class="cls-2" x="183.52" y="23.6" width="2.62" height="7.87"/><rect class="cls-2" x="186.14" y="31.46" width="2.62" height="10.49"/><rect class="cls-2" x="188.77" y="41.95" width="2.62" height="5.24"/><rect class="cls-2" x="186.14" y="47.19" width="2.62" height="13.11"/><rect class="cls-2" x="183.52" y="60.3" width="2.62" height="7.87"/><rect class="cls-2" x="180.9" y="68.17" width="2.62" height="5.24"/><rect class="cls-2" x="178.28" y="73.41" width="2.62" height="5.24"/><rect class="cls-2" x="175.66" y="78.65" width="2.62" height="2.62"/><rect class="cls-2" x="170.41" y="81.27" width="5.24" height="2.62"/><rect class="cls-2" x="167.79" y="83.9" width="2.62" height="2.62"/><rect class="cls-2" x="162.55" y="86.52" width="5.24" height="2.62"/><rect class="cls-2" x="141.57" y="91.76" width="10.49" height="2.62"/><rect class="cls-2" x="136.33" y="89.14" width="5.24" height="2.62"/><rect class="cls-2" x="144.2" width="18.35" height="2.62"/><rect class="cls-2" x="112.73" y="55.06" width="2.62" height="10.49"/><rect class="cls-2" x="115.36" y="65.54" width="2.62" height="5.24"/><rect class="cls-2" x="117.98" y="70.79" width="2.62" height="5.24"/><rect class="cls-2" x="120.6" y="76.03" width="2.62" height="5.24"/><rect class="cls-2" x="123.22" y="81.27" width="5.24" height="2.62"/><rect class="cls-2" x="128.47" y="83.9" width="2.62" height="2.62"/><polygon class="cls-2" points="136.33 73.41 133.71 73.41 133.71 86.52 131.09 86.52 131.09 89.14 136.33 89.14 136.33 86.52 136.33 73.41"/><rect class="cls-2" x="131.09" y="68.17" width="2.62" height="5.24"/><polygon class="cls-2" points="136.33 55.06 138.95 55.06 138.95 39.33 131.09 39.33 131.09 41.95 136.33 41.95 136.33 55.06"/><polygon class="cls-2" points="144.2 55.06 138.95 55.06 138.95 57.68 146.82 57.68 146.82 52.44 162.55 52.44 162.55 39.33 159.93 39.33 159.93 49.81 146.82 49.81 146.82 36.7 144.2 36.7 144.2 28.84 141.57 28.84 141.57 36.7 138.95 36.7 138.95 39.33 144.2 39.33 144.2 55.06"/><polygon class="cls-2" points="136.33 57.68 136.33 55.06 131.09 55.06 131.09 41.95 128.47 41.95 128.47 68.17 131.09 68.17 131.09 57.68 136.33 57.68"/><rect class="cls-2" x="146.82" y="57.68" width="10.49" height="2.62"/><rect class="cls-2" x="162.55" y="52.43" width="2.62" height="13.11"/><rect class="cls-2" x="159.93" y="65.54" width="2.62" height="5.24"/><rect class="cls-2" x="157.3" y="70.79" width="2.62" height="2.62"/><polygon class="cls-2" points="157.3 73.41 154.68 73.41 154.68 89.14 152.06 89.14 152.06 91.76 162.55 91.76 162.55 89.14 157.3 89.14 157.3 73.41"/><polygon class="cls-2" points="154.68 44.57 154.68 39.33 157.3 39.33 157.3 31.46 154.68 31.46 154.68 36.7 152.06 36.7 152.06 44.57 154.68 44.57"/><rect class="cls-2" x="149.44" y="28.84" width="2.62" height="7.87"/><rect class="cls-2" x="146.82" y="23.6" width="2.62" height="5.24"/><rect class="cls-2" x="141.57" y="20.97" width="5.24" height="2.62"/><rect class="cls-2" x="159.93" y="20.97" width="5.24" height="2.62"/><rect class="cls-2" x="138.95" y="23.6" width="2.62" height="5.24"/><rect class="cls-2" x="162.55" y="34.08" width="2.62" height="5.24"/><rect class="cls-2" x="157.3" y="23.6" width="2.62" height="7.87"/><rect class="cls-2" x="165.17" y="23.6" width="2.62" height="10.49"/><rect class="cls-2" x="91.76" y="44.57" width="2.62" height="7.87"/><rect class="cls-2" x="94.38" y="34.08" width="2.62" height="10.49"/><rect class="cls-2" x="83.9" y="31.46" width="10.49" height="2.62"/><rect class="cls-2" x="241.2" y="34.08" width="2.62" height="2.62"/><rect class="cls-2" x="238.58" y="36.7" width="2.62" height="7.87"/><rect class="cls-2" x="235.96" y="44.57" width="2.62" height="10.49"/><rect class="cls-2" x="238.58" y="55.06" width="2.62" height="5.24"/><rect class="cls-2" x="241.2" y="60.3" width="7.87" height="2.62"/><rect class="cls-2" x="249.07" y="52.43" width="2.62" height="7.87"/><rect class="cls-2" x="251.69" y="44.57" width="2.62" height="7.87"/><rect class="cls-2" x="254.31" y="34.08" width="2.62" height="10.49"/><rect class="cls-2" x="243.82" y="31.46" width="10.49" height="2.62"/><rect class="cls-2" x="298.88" y="34.08" width="2.62" height="2.62"/><rect class="cls-2" x="285.77" y="31.46" width="2.62" height="5.24"/><rect class="cls-2" x="277.9" y="44.57" width="2.62" height="2.62"/><rect class="cls-2" x="275.28" y="39.33" width="2.62" height="5.24"/><rect class="cls-2" x="272.66" y="36.7" width="2.62" height="2.62"/><rect class="cls-2" x="270.04" y="31.46" width="2.62" height="5.24"/><rect class="cls-2" x="267.42" y="36.7" width="2.62" height="13.11"/><rect class="cls-2" x="264.8" y="49.81" width="2.62" height="10.49"/><rect class="cls-2" x="259.55" y="60.3" width="5.24" height="2.62"/><rect class="cls-2" x="209.74" y="36.7" width="2.62" height="13.11"/><rect class="cls-2" x="225.47" y="36.7" width="2.62" height="23.6"/><rect class="cls-2" x="214.98" y="36.7" width="2.62" height="2.62"/><rect class="cls-2" x="220.23" y="36.7" width="2.62" height="2.62"/><rect class="cls-2" x="217.6" y="39.33" width="2.62" height="7.87"/><rect class="cls-2" x="212.36" y="31.46" width="2.62" height="5.24"/><rect class="cls-2" x="222.85" y="31.46" width="2.62" height="5.24"/><rect class="cls-2" x="207.12" y="49.81" width="2.62" height="10.49"/><rect class="cls-2" x="201.87" y="60.3" width="5.24" height="2.62"/><rect class="cls-2" x="222.85" y="60.3" width="2.62" height="2.62"/><rect class="cls-2" x="277.9" y="60.3" width="2.62" height="2.62"/><rect class="cls-2" x="280.53" y="55.06" width="2.62" height="5.24"/><rect class="cls-2" x="296.26" y="36.7" width="2.62" height="7.87"/><rect class="cls-2" x="293.63" y="44.57" width="2.62" height="10.49"/><rect class="cls-2" x="283.15" y="36.7" width="2.62" height="18.35"/><rect class="cls-2" x="296.26" y="55.06" width="2.62" height="5.24"/><rect class="cls-2" x="298.88" y="60.3" width="7.87" height="2.62"/><rect class="cls-2" x="306.74" y="52.43" width="2.62" height="7.87"/><rect class="cls-2" x="309.37" y="44.57" width="2.62" height="7.87"/><rect class="cls-2" x="311.99" y="34.08" width="2.62" height="10.49"/><rect class="cls-2" x="301.5" y="31.46" width="10.49" height="2.62"/><rect class="cls-2" x="10.49" y="44.57" width="2.62" height="7.87"/><rect class="cls-2" x="13.11" y="34.08" width="2.62" height="10.49"/><rect class="cls-2" y="57.68" width="2.62" height="2.62"/><rect class="cls-2" x="7.87" y="52.43" width="2.62" height="7.87"/></svg>